Noel Gallagher and Gem of Oasis LIVE in a semi-acoustic performance from Le cabaret sauvage in Paris, France November 28, 2006.


Format                                   : Windows Media
File size                                : 579 MiB
Duration                                 : 1h 8mn
Overall bit rate mode                    : Constant
Overall bit rate                         : 1 181 Kbps
Maximum Overall bit rate                 : 1 146 Kbps
Encoded date                             : UTC 2006-11-29 05:40:37.129

Video 
ID                                       : 4
Format                                   : VC-1
Format profile                           : MP@ML
Codec ID                                 : WMV3
Codec ID/Info                            : Windows Media Video 9
Codec ID/Hint                            : WMV3
Description of the codec                 : Windows Media Video 9
Duration                                 : 1h 8mn
Bit rate mode                            : Constant
Bit rate                                 : 595 Kbps
Width                                    : 424 pixels
Height                                   : 240 pixels
Display aspect ratio                     : 16:9
Frame rate                               : 29.970 fps
Bit depth                                : 8 bits
Scan type                                : Progressive
Compression mode                         : Lossy
Bits/(Pixel*Frame)                       : 0.195
Stream size                              : 292 MiB (50%)

Audio
ID                                       : 1
Format                                   : WMA
Format version                           : Version 2
Codec ID                                 : 161
Codec ID/Info                            : Windows Media Audio
Description of the codec                 : Windows Media Audio 9.2 - 96 kbps, 
                                           44 kHz, stereo 1-pass CBR
Duration                                 : 1h 8mn
Bit rate mode                            : Constant
Bit rate                                 : 96.0 Kbps
Channel(s)                               : 2 channels
Sampling rate                            : 44.1 KHz
Bit depth                                : 16 bits
Stream size                              : 47.1 MiB (8%)
